<svg width="60" height="60" viewBox="0 0 60 60" fill="none" xmlns="http://www.w3.org/2000/svg">
<path d="M12.5597 44.0684H47.4403M16.5 50.5H43.5M29.5 3.5V17.5M29.5746 16.7842V43.2158L11.709 24.458M40.6343 6.55273L29.5746 17.637L19.3657 6.55273M44.888 10.8159L29.5746 26.1633L15.1119 10.8159M47.4403 17.6367L29.5746 34.6894L12.5597 16.7842M48.291 25.3106L29.5746 44.0685M48.2911 33.8369L38.0821 44.0685M11.709 33.8369L21.918 44.0685M30 56.8579C19.8992 56.8579 11.709 48.4056 11.709 37.9772V22.0227C11.709 11.5963 19.8992 3.14209 30 3.14209C40.1027 3.14209 48.2911 11.5963 48.2911 22.0227V37.9772C48.2929 48.4056 40.1027 56.8579 30 56.8579Z" stroke="#7EB693" stroke-width="2" stroke-miterlimit="10"/>
</svg>
