<svg width="0" height="0" class="hidden">
  <symbol fill="none" xmlns="http://www.w3.org/2000/svg" viewBox="0 0 37 14" id="Arrow">
    <path d="M34.9743 7.00003H1M28.6153 1L36 7.00003L28.6153 13V1Z" stroke-width="1.4" stroke-linecap="round" stroke-linejoin="round"></path>
  </symbol>
  <symbol fill="none" xmlns="http://www.w3.org/2000/svg" viewBox="0 0 24 24" id="Burger">
    <path d="M2 4H22" stroke="#274C5B" stroke-linecap="round" stroke-linejoin="round"></path>
    <path d="M2 12H22" stroke="#274C5B" stroke-linecap="round" stroke-linejoin="round"></path>
    <path d="M2 20H22" stroke="#274C5B" stroke-linecap="round" stroke-linejoin="round"></path>
  </symbol>
  <symbol fill="none" xmlns="http://www.w3.org/2000/svg" viewBox="0 0 24 24" id="Cross">
    <path d="M4.92896 4.92893L19.0711 19.0711" stroke="#274C5B" stroke-linecap="round" stroke-linejoin="round"></path>
    <path d="M19.071 4.92896L4.92891 19.0711" stroke="#274C5B" stroke-linecap="round" stroke-linejoin="round"></path>
  </symbol>
  <symbol fill="none" xmlns="http://www.w3.org/2000/svg" viewBox="0 0 48 48" id="Food">
    <path d="M37 19C42.4572 20.1079 46 21.8954 46 23.912C46 27.2743 36.1503 30 24 30C11.8497 30 2 27.2743 2 23.912C2 22.4447 3.8758 21.0986 7 20.0474" stroke="#7EB693" stroke-width="2" stroke-linecap="round"></path>
    <path d="M9.03743 18.1145C8.63797 13.5103 11.5341 11.3103 13.0321 10.7858C16.5273 -0.788523 27.1619 7.7394 30.5087 12.7987C33.8555 17.8581 33.5047 18.1145 37 24.3731C22.0201 30.9151 9.53676 23.8698 9.03743 18.1145Z" stroke="#7EB693" stroke-width="2" stroke-linecap="round"></path>
    <path d="M9.09128 2C8.428 5.24786 11.0811 13.5949 27 21" stroke="#7EB693" stroke-width="2" stroke-linecap="round"></path>
    <path d="M46 23C46 38 36.1503 46 24 46C11.8497 46 2 38 2 23" stroke="#7EB693" stroke-width="2" stroke-linecap="round"></path>
  </symbol>
  <symbol fill="none" xmlns="http://www.w3.org/2000/svg" viewBox="0 0 48 48" id="Quality">
    <path d="M42 30V38H2V20C2 15.5817 5.58172 12 10 12H29.5M34.5 18.5V27.5L39.5 23.5L45 27.5V18.5" stroke="#7EB693" stroke-width="2" stroke-linecap="round" stroke-linejoin="round"></path>
    <path d="M38.7925 2.70816C39.1831 2.31717 39.8168 2.31717 40.2074 2.70816L41.1708 3.67248C41.3799 3.88184 41.6711 3.98781 41.9659 3.96187L43.3237 3.8424C43.8743 3.79396 44.3597 4.2013 44.4076 4.75189L44.5257 6.10985C44.5514 6.40467 44.7063 6.673 44.9488 6.84262L46.0658 7.6239C46.5186 7.94068 46.6287 8.56475 46.3115 9.01732L45.5291 10.1335C45.3592 10.3758 45.3054 10.681 45.3821 10.9668L45.7356 12.2832C45.8789 12.817 45.562 13.3658 45.0281 13.5086L43.7113 13.8607C43.4254 13.9372 43.1881 14.1363 43.0631 14.4046L42.4877 15.6403C42.2544 16.1413 41.6589 16.358 41.1581 16.1242L39.923 15.5475C39.6549 15.4223 39.345 15.4223 39.0769 15.5475L37.8418 16.1242C37.341 16.358 36.7455 16.1413 36.5122 15.6403L35.9368 14.4046C35.8118 14.1363 35.5745 13.9372 35.2886 13.8607L33.9718 13.5086C33.4379 13.3658 33.121 12.817 33.2643 12.2832L33.6178 10.9668C33.6945 10.681 33.6407 10.3758 33.4708 10.1335L32.6884 9.01732C32.3712 8.56475 32.4813 7.94068 32.9341 7.6239L34.0511 6.84262C34.2936 6.673 34.4485 6.40467 34.4742 6.10985L34.5923 4.75189C34.6402 4.2013 35.1256 3.79396 35.6762 3.8424L37.034 3.96187C37.3288 3.98781 37.62 3.88184 37.8291 3.67248L38.7925 2.70816Z" stroke="#7EB693" stroke-width="2" stroke-linecap="round"></path>
    <path d="M2 20.5C2 15.8056 5.80558 12 10.5 12V12C15.1944 12 19 15.8056 19 20.5V38H2V20.5Z" stroke="#7EB693" stroke-width="2" stroke-linecap="round"></path>
    <path d="M14.5 23H6.5" stroke="#7EB693" stroke-width="2" stroke-linecap="round"></path>
    <path d="M23 39V46" stroke="#7EB693" stroke-width="2" stroke-linecap="round"></path>
    <path d="M28 39V46" stroke="#7EB693" stroke-width="2" stroke-linecap="round"></path>
  </symbol>
  <symbol fill="none" xmlns="http://www.w3.org/2000/svg" viewBox="0 0 24 24" id="Star">
    <path d="M10.9794 0.791818C11.3115 -0.263939 12.6893 -0.263939 13.0203 0.791818L15.1432 7.54721C15.2909 8.02067 15.7017 8.33903 16.1631 8.33903H22.9199C23.9764 8.33903 24.4023 9.81484 23.5344 10.4673L18.1555 14.5094C17.7599 14.8066 17.5949 15.3519 17.7491 15.8458L19.8245 22.4501C20.1587 23.5169 19.0439 24.4287 18.189 23.7864L12.615 19.5972C12.2452 19.3195 11.7557 19.3195 11.3859 19.5972L5.81079 23.7864C4.9569 24.4287 3.84103 23.5169 4.17633 22.4501L6.25067 15.8458C6.40593 15.3519 6.23989 14.8066 5.84421 14.5094L0.465786 10.4673C-0.402443 9.81484 0.0236396 8.33903 1.08022 8.33903H7.83662C8.29807 8.33903 8.70884 8.02067 8.85762 7.54721L10.9794 0.791818Z" fill="#FFA858"></path>
  </symbol>
  <symbol fill="none" xmlns="http://www.w3.org/2000/svg" viewBox="0 0 24 24" id="User">
    <path d="M15.6846 3.45446C14.749 2.51651 13.4422 2 12 2C10.55 2 9.23902 2.51339 8.30779 3.44553C7.36648 4.38793 6.90783 5.66873 7.01552 7.05176C7.22898 9.7803 9.46498 11.9999 12 11.9999C14.535 11.9999 16.7672 9.78075 16.984 7.05265C17.0931 5.68212 16.6316 4.404 15.6846 3.45446ZM20.4613 21.9999H3.53869C3.31719 22.0026 3.09783 21.9594 2.89658 21.8734C2.69532 21.7874 2.51723 21.6609 2.37526 21.503C2.06277 21.1561 1.93682 20.6825 2.03008 20.2035C2.43584 18.1133 3.70216 16.3575 5.69248 15.1249C7.4607 14.0307 9.70054 13.4285 12 13.4285C14.2994 13.4285 16.5393 14.0312 18.3076 15.1249C20.2979 16.3571 21.5641 18.1129 21.9699 20.203C22.0632 20.682 21.9372 21.1557 21.6248 21.5026C21.4828 21.6606 21.3048 21.7872 21.1034 21.8732C20.9022 21.9592 20.6829 22.0025 20.4613 21.9999Z" fill="#7EB693"></path>
  </symbol>
</svg>