<svg width="0" height="0" class="hidden">
  <symbol fill="none" xmlns="http://www.w3.org/2000/svg" viewBox="0 0 37 14" id="Arrow">
    <path d="M34.9743 7.00003H1M28.6153 1L36 7.00003L28.6153 13V1Z" stroke-width="1.4" stroke-linecap="round" stroke-linejoin="round"></path>
  </symbol>
  <symbol fill="none" xmlns="http://www.w3.org/2000/svg" viewBox="0 0 24 24" id="Burger">
    <path d="M2 4H22" stroke="#274C5B" stroke-linecap="round" stroke-linejoin="round"></path>
    <path d="M2 12H22" stroke="#274C5B" stroke-linecap="round" stroke-linejoin="round"></path>
    <path d="M2 20H22" stroke="#274C5B" stroke-linecap="round" stroke-linejoin="round"></path>
  </symbol>
  <symbol fill="none" xmlns="http://www.w3.org/2000/svg" viewBox="0 0 24 24" id="Cross">
    <path d="M4.92896 4.92893L19.0711 19.0711" stroke="#274C5B" stroke-linecap="round" stroke-linejoin="round"></path>
    <path d="M19.071 4.92896L4.92891 19.0711" stroke="#274C5B" stroke-linecap="round" stroke-linejoin="round"></path>
  </symbol>
  <symbol fill="none" xmlns="http://www.w3.org/2000/svg" viewBox="0 0 48 48" id="Food">
    <path d="M37 19C42.4572 20.1079 46 21.8954 46 23.912C46 27.2743 36.1503 30 24 30C11.8497 30 2 27.2743 2 23.912C2 22.4447 3.8758 21.0986 7 20.0474" stroke="#7EB693" stroke-width="2" stroke-linecap="round"></path>
    <path d="M9.03743 18.1145C8.63797 13.5103 11.5341 11.3103 13.0321 10.7858C16.5273 -0.788523 27.1619 7.7394 30.5087 12.7987C33.8555 17.8581 33.5047 18.1145 37 24.3731C22.0201 30.9151 9.53676 23.8698 9.03743 18.1145Z" stroke="#7EB693" stroke-width="2" stroke-linecap="round"></path>
    <path d="M9.09128 2C8.428 5.24786 11.0811 13.5949 27 21" stroke="#7EB693" stroke-width="2" stroke-linecap="round"></path>
    <path d="M46 23C46 38 36.1503 46 24 46C11.8497 46 2 38 2 23" stroke="#7EB693" stroke-width="2" stroke-linecap="round"></path>
  </symbol>
  <symbol fill="none" xmlns="http://www.w3.org/2000/svg" viewBox="0 0 48 48" id="Quality">
    <path d="M42 30V38H2V20C2 15.5817 5.58172 12 10 12H29.5M34.5 18.5V27.5L39.5 23.5L45 27.5V18.5" stroke="#7EB693" stroke-width="2" stroke-linecap="round" stroke-linejoin="round"></path>
    <path d="M38.7925 2.70816C39.1831 2.31717 39.8168 2.31717 40.2074 2.70816L41.1708 3.67248C41.3799 3.88184 41.6711 3.98781 41.9659 3.96187L43.3237 3.8424C43.8743 3.79396 44.3597 4.2013 44.4076 4.75189L44.5257 6.10985C44.5514 6.40467 44.7063 6.673 44.9488 6.84262L46.0658 7.6239C46.5186 7.94068 46.6287 8.56475 46.3115 9.01732L45.5291 10.1335C45.3592 10.3758 45.3054 10.681 45.3821 10.9668L45.7356 12.2832C45.8789 12.817 45.562 13.3658 45.0281 13.5086L43.7113 13.8607C43.4254 13.9372 43.1881 14.1363 43.0631 14.4046L42.4877 15.6403C42.2544 16.1413 41.6589 16.358 41.1581 16.1242L39.923 15.5475C39.6549 15.4223 39.345 15.4223 39.0769 15.5475L37.8418 16.1242C37.341 16.358 36.7455 16.1413 36.5122 15.6403L35.9368 14.4046C35.8118 14.1363 35.5745 13.9372 35.2886 13.8607L33.9718 13.5086C33.4379 13.3658 33.121 12.817 33.2643 12.2832L33.6178 10.9668C33.6945 10.681 33.6407 10.3758 33.4708 10.1335L32.6884 9.01732C32.3712 8.56475 32.4813 7.94068 32.9341 7.6239L34.0511 6.84262C34.2936 6.673 34.4485 6.40467 34.4742 6.10985L34.5923 4.75189C34.6402 4.2013 35.1256 3.79396 35.6762 3.8424L37.034 3.96187C37.3288 3.98781 37.62 3.88184 37.8291 3.67248L38.7925 2.70816Z" stroke="#7EB693" stroke-width="2" stroke-linecap="round"></path>
    <path d="M2 20.5C2 15.8056 5.80558 12 10.5 12V12C15.1944 12 19 15.8056 19 20.5V38H2V20.5Z" stroke="#7EB693" stroke-width="2" stroke-linecap="round"></path>
    <path d="M14.5 23H6.5" stroke="#7EB693" stroke-width="2" stroke-linecap="round"></path>
    <path d="M23 39V46" stroke="#7EB693" stroke-width="2" stroke-linecap="round"></path>
    <path d="M28 39V46" stroke="#7EB693" stroke-width="2" stroke-linecap="round"></path>
  </symbol>
  <symbol fill="none" xmlns="http://www.w3.org/2000/svg" viewBox="0 0 24 24" id="Star">
    <path d="M10.9794 0.791818C11.3115 -0.263939 12.6893 -0.263939 13.0203 0.791818L15.1432 7.54721C15.2909 8.02067 15.7017 8.33903 16.1631 8.33903H22.9199C23.9764 8.33903 24.4023 9.81484 23.5344 10.4673L18.1555 14.5094C17.7599 14.8066 17.5949 15.3519 17.7491 15.8458L19.8245 22.4501C20.1587 23.5169 19.0439 24.4287 18.189 23.7864L12.615 19.5972C12.2452 19.3195 11.7557 19.3195 11.3859 19.5972L5.81079 23.7864C4.9569 24.4287 3.84103 23.5169 4.17633 22.4501L6.25067 15.8458C6.40593 15.3519 6.23989 14.8066 5.84421 14.5094L0.465786 10.4673C-0.402443 9.81484 0.0236396 8.33903 1.08022 8.33903H7.83662C8.29807 8.33903 8.70884 8.02067 8.85762 7.54721L10.9794 0.791818Z" fill="#FFA858"></path>
  </symbol>
  <symbol fill="none" xmlns="http://www.w3.org/2000/svg" viewBox="0 0 24 24" id="User">
    <path d="M15.6846 3.45446C14.749 2.51651 13.4422 2 12 2C10.55 2 9.23902 2.51339 8.30779 3.44553C7.36648 4.38793 6.90783 5.66873 7.01552 7.05176C7.22898 9.7803 9.46498 11.9999 12 11.9999C14.535 11.9999 16.7672 9.78075 16.984 7.05265C17.0931 5.68212 16.6316 4.404 15.6846 3.45446ZM20.4613 21.9999H3.53869C3.31719 22.0026 3.09783 21.9594 2.89658 21.8734C2.69532 21.7874 2.51723 21.6609 2.37526 21.503C2.06277 21.1561 1.93682 20.6825 2.03008 20.2035C2.43584 18.1133 3.70216 16.3575 5.69248 15.1249C7.4607 14.0307 9.70054 13.4285 12 13.4285C14.2994 13.4285 16.5393 14.0312 18.3076 15.1249C20.2979 16.3571 21.5641 18.1129 21.9699 20.203C22.0632 20.682 21.9372 21.1557 21.6248 21.5026C21.4828 21.6606 21.3048 21.7872 21.1034 21.8732C20.9022 21.9592 20.6829 22.0025 20.4613 21.9999Z" fill="#7EB693"></path>
  </symbol>
  <symbol fill="none" xmlns="http://www.w3.org/2000/svg" viewBox="0 0 24 24" id="facebook">
    <path fill-rule="evenodd" clip-rule="evenodd" d="M24 12.0725C24 5.40566 18.6268 0 12 0C5.37321 0 0 5.40566 0 12.0725C0 18.0979 4.3875 23.0924 10.125 23.9988V15.5632H7.07733V12.0725H10.125V9.41274C10.125 6.38762 11.917 4.71526 14.6577 4.71526C15.9708 4.71526 17.3443 4.95133 17.3443 4.95133V7.92255H15.8304C14.3405 7.92255 13.8745 8.85278 13.8745 9.80887V12.0725H17.2023L16.6709 15.5632H13.875V24C19.6125 23.0939 24 18.0995 24 12.0725Z" fill="#274C5B"></path>
  </symbol>
  <symbol fill="none" xmlns="http://www.w3.org/2000/svg" viewBox="0 0 24 24" id="instagram">
    <path d="M16.9998 1.99983C18.3248 2.00378 19.5944 2.53187 20.5312 3.46877C21.4682 4.40567 21.9963 5.67523 22.0002 7.00019V16.9999C21.9963 18.3249 21.4682 19.5944 20.5312 20.5313C19.5944 21.4682 18.3248 21.9962 16.9998 22.0002H7.00019C5.67523 21.9962 4.40566 21.4682 3.46877 20.5313C2.53187 19.5944 2.00378 18.3249 1.99983 16.9999V7.00019C2.00378 5.67523 2.53187 4.40567 3.46877 3.46877C4.40566 2.53187 5.67523 2.00378 7.00019 1.99983H16.9998ZM16.9998 0H7.00019C3.15 0 0 3.15 0 7.00019V16.9999C0 20.85 3.15 24 7.00019 24H16.9998C20.8501 24 24 20.85 24 16.9999V7.00019C24 3.15 20.8501 0 16.9998 0Z" fill="#274C5B"></path>
    <path d="M18.4993 7.00059C18.2026 7.00059 17.9126 6.91261 17.6659 6.74779C17.4194 6.58297 17.2271 6.3487 17.1136 6.07461C17.0001 5.80051 16.9703 5.49892 17.0282 5.20795C17.0861 4.91697 17.2289 4.64969 17.4387 4.43992C17.6485 4.23015 17.9157 4.08727 18.2067 4.02939C18.4977 3.97153 18.7993 4.00123 19.0734 4.11476C19.3474 4.22828 19.5817 4.42054 19.7466 4.66722C19.9114 4.91389 19.9994 5.20391 19.9994 5.50059C19.9998 5.69768 19.9613 5.89293 19.886 6.07511C19.8108 6.25728 19.7003 6.42281 19.561 6.56219C19.4216 6.70156 19.2561 6.81204 19.0739 6.88726C18.8917 6.9625 18.6965 7.001 18.4993 7.00059ZM11.9995 8.00023C12.7907 8.00023 13.5641 8.23484 14.2219 8.67438C14.8797 9.11393 15.3925 9.73867 15.6952 10.4696C15.998 11.2006 16.0772 12.0049 15.9228 12.7808C15.7685 13.5568 15.3875 14.2695 14.8281 14.829C14.2686 15.3884 13.5559 15.7695 12.7799 15.9238C12.004 16.0781 11.1997 15.9989 10.4687 15.6962C9.73778 15.3933 9.11304 14.8806 8.67349 14.2228C8.23395 13.565 7.99934 12.7916 7.99934 12.0004C8.00047 10.9398 8.42229 9.92305 9.17222 9.17311C9.92216 8.42317 10.939 8.00136 11.9995 8.00023ZM11.9995 6.0004C10.8128 6.0004 9.6528 6.3523 8.6661 7.01159C7.67941 7.67088 6.91037 8.60795 6.45624 9.70432C6.00211 10.8007 5.8833 12.0071 6.1148 13.171C6.34632 14.3349 6.91777 15.4039 7.75688 16.243C8.59599 17.0821 9.66509 17.6537 10.829 17.8852C11.9929 18.1166 13.1993 17.9979 14.2956 17.5437C15.392 17.0896 16.3291 16.3206 16.9884 15.3339C17.6476 14.3472 17.9995 13.1872 17.9995 12.0004C17.9995 10.4091 17.3674 8.88299 16.2422 7.75777C15.1169 6.63255 13.5909 6.0004 11.9995 6.0004Z" fill="#274C5B"></path>
  </symbol>
  <symbol fill="none" xmlns="http://www.w3.org/2000/svg" viewBox="0 0 24 24" id="pinterest">
    <path d="M12.0027 0C5.37442 0 0 5.37201 0 11.9973C0 16.9088 2.9578 21.1293 7.18553 22.9878C7.15338 22.1522 7.18018 21.1453 7.39451 20.2348C7.62492 19.26 8.93772 13.6951 8.93772 13.6951C8.93772 13.6951 8.5519 12.9292 8.5519 11.7992C8.5519 10.021 9.58072 8.6927 10.8667 8.6927C11.9598 8.6927 12.485 9.51217 12.485 10.4923C12.485 11.5903 11.783 13.2292 11.424 14.7502C11.1239 16.025 12.0616 17.0587 13.3208 17.0587C15.5928 17.0587 17.1253 14.1397 17.1253 10.6798C17.1253 8.05 15.3517 6.08436 12.1313 6.08436C8.49297 6.08436 6.22103 8.79982 6.22103 11.8313C6.22103 12.8757 6.53182 13.6149 7.01407 14.1826C7.23375 14.445 7.2659 14.5521 7.18553 14.852C7.12659 15.0716 6.99799 15.6019 6.93905 15.8161C6.85868 16.1215 6.61219 16.2285 6.33892 16.1161C4.66175 15.4305 3.87943 13.5988 3.87943 11.5314C3.87943 8.12498 6.75686 4.03839 12.4582 4.03839C17.0395 4.03839 20.0563 7.35371 20.0563 10.9101C20.0563 15.6179 17.4361 19.1315 13.578 19.1315C12.2814 19.1315 11.065 18.4298 10.647 17.6371C10.647 17.6371 9.95044 20.4008 9.8004 20.9364C9.54855 21.863 9.05024 22.7843 8.59477 23.5072C9.69961 23.833 10.8454 23.999 11.9973 24C18.6256 24 24 18.6279 24 12.0027C24 5.37737 18.631 0 12.0027 0Z" fill="#274C5B"></path>
  </symbol>
  <symbol fill="none" xmlns="http://www.w3.org/2000/svg" viewBox="0 0 24 24" id="twitter">
    <path d="M24 4.3698C23.0997 4.77727 22.1472 5.04573 21.1724 5.16667C22.1968 4.54187 22.9672 3.54926 23.339 2.37501C22.3705 2.9649 21.3127 3.3788 20.2109 3.59897C19.7471 3.09247 19.189 2.68954 18.5709 2.41467C17.9529 2.13979 17.2875 1.99871 16.6155 2.00001C13.8944 2.00001 11.6925 4.26042 11.6925 7.04688C11.6905 7.43446 11.7332 7.8209 11.8195 8.19793C9.86833 8.10264 7.95775 7.58416 6.20998 6.67566C4.46221 5.76715 2.91574 4.48863 1.66949 2.92188C1.23228 3.68965 1.00106 4.56566 0.999998 5.45834C0.999998 7.20834 1.8765 8.75522 3.2 9.66146C2.41586 9.64208 1.64779 9.42589 0.960999 9.03125V9.09375C0.960999 11.5417 2.661 13.5781 4.911 14.0417C4.48789 14.1591 4.05188 14.2187 3.614 14.2188C3.30329 14.2193 2.99328 14.1879 2.6885 14.125C3.314 16.1302 5.1345 17.5886 7.29099 17.6302C5.53868 19.0369 3.3873 19.7973 1.175 19.7917C0.782308 19.7911 0.389982 19.7667 0 19.7187C2.25059 21.2157 4.86671 22.0076 7.53698 21.9999C16.605 21.9999 21.559 14.3072 21.559 7.63542C21.559 7.41668 21.5534 7.19792 21.5434 6.98438C22.5051 6.27191 23.3368 5.38653 24 4.3698Z" fill="#274C5B"></path>
  </symbol>
</svg>